<svg xmlns="http://www.w3.org/2000/svg" viewBox="0 0 224.36 220.12"><defs><style>.cls-1{fill:#f39200;}.cls-2{fill:#1d1d1b;}.cls-3{fill:#ef7d00;}.cls-4{fill:#fff;}</style></defs><title>Ativo 3</title><g id="Camada_2" data-name="Camada 2"><g id="Camada_1-2" data-name="Camada 1"><rect class="cls-1" x="46.91" width="130.53" height="130.53" rx="14.42"/><path class="cls-2" d="M35.9,159H.84a.83.83,0,0,0-.84.69v9.09a.77.77,0,0,0,.84.68H12.6v50a.78.78,0,0,0,.84.68h9.85a.86.86,0,0,0,.92-.68v-50H35.9c.53,0,.84-.3.84-.68v-9.09A.78.78,0,0,0,35.9,159Z"/><path class="cls-2" d="M72,159H47.93a.77.77,0,0,0-.84.69v9.09c0,.38.3.68.84.68H54v40.18H47.93a.77.77,0,0,0-.84.69v9.09a.84.84,0,0,0,.84.68H72a.79.79,0,0,0,.85-.68v-9.09c0-.39-.31-.69-.85-.69H65.87V169.48H72a.78.78,0,0,0,.84-.68v-9.09A.84.84,0,0,0,72,159Z"/><path class="cls-2" d="M107.38,190.11l24.29-29.94c.54-.54.16-1.15-.68-1.15H118.54a1.76,1.76,0,0,0-.69.23l-23,28.26v-27.8a.76.76,0,0,0-.76-.69H84a.84.84,0,0,0-.84.69v56.67s14.9-16.88,16.42-18.48l17.8,22a1.81,1.81,0,0,0,.69.23h13.14c.76,0,1.14-.53.68-1.14Z"/><path class="cls-2" d="M187.51,159h-9.93a.78.78,0,0,0-.84.69v40c0,6.19-5.65,9.17-11.38,9.17s-10.69-3.21-11.38-9.25V170.1H142.45v29.63c0,12.6,10.31,20.39,22.91,20.39,13,0,22.92-7.48,22.92-20.39v-40A.82.82,0,0,0,187.51,159Z"/><path class="cls-2" d="M217.41,169.48h6.11a.77.77,0,0,0,.84-.68v-9.09a.83.83,0,0,0-.84-.69H180.59a.77.77,0,0,0-.84.69v9.09c0,.38.3.68.84.68h25v40.18h-6.11a.78.78,0,0,0-.84.69v9.09a.84.84,0,0,0,.84.68h24.06a.77.77,0,0,0,.84-.68v-9.09c0-.39-.3-.69-.84-.69h-6.11V169.48Z"/><path class="cls-3" d="M158.68,4.91h-.49C152.68,54.64,123.74,98,81.66,125.63h77a14.4,14.4,0,0,0,14.4-14.4V19.3A14.4,14.4,0,0,0,158.68,4.91Z"/><path class="cls-4" d="M73.08,59.42a.75.75,0,0,0,.8.66h9.39a.82.82,0,0,0,.87-.66V24.21h14c.71,0,1.12-.29,1.12-.65V14.9c0-.29-.41-.66-1.12-.66h-36c-.62,0-1.12.37-1.12.66v8.66c0,.36.5.65,1.12.65H73.08Z"/><path class="cls-4" d="M104.5,24.21V62.49h0V96.86c0,5.89-5.39,8.73-10.85,8.73s-10.18-3-10.84-8.8V70.6h-11V96.86c0,12,9.83,19.43,21.83,19.43,12.37,0,21.83-7.13,21.83-19.43V14.24h-11Z"/><path class="cls-4" d="M163.14,59.24l-18.4-21.67L163,15.1c.4-.4.11-.86-.52-.86h-9.34a1.33,1.33,0,0,0-.52.18L135.34,35.63V14.76a.57.57,0,0,0-.57-.52H127.2a.63.63,0,0,0-.63.52V57.29s11.18-12.67,12.32-13.87l13.36,16.51a1.34,1.34,0,0,0,.51.17h9.86C163.2,60.1,163.48,59.7,163.14,59.24Z"/><path class="cls-4" d="M150.29,106.32h-5.82V61.18l-5.58-6.89c-.5.53-3,3.29-5.55,6.22v45.81h-6a.74.74,0,0,0-.8.65v8.66a.8.8,0,0,0,.8.66h22.92a.75.75,0,0,0,.8-.66V107C151.09,106.61,150.8,106.32,150.29,106.32Z"/></g></g></svg>