<?xml version="1.0" encoding="UTF-8"?>
<svg width="115px" height="67px" viewBox="0 0 115 67" version="1.1" xmlns="http://www.w3.org/2000/svg" xmlns:xlink="http://www.w3.org/1999/xlink">
    <title>939F69E9-C193-4037-81BF-58C624AF804B</title>
    <g id="Tikui" stroke="none" stroke-width="1" fill="none" fill-rule="evenodd">
        <g id="Home" transform="translate(-104.000000, -17.000000)" fill-rule="nonzero">
            <g id="Logo-1" transform="translate(104.500000, 17.500000)">
                <g id="Group">
                    <path d="M19.1083,49.446878 C8.60252857,49.446878 0.0548857143,40.9232195 0.0548857143,30.4469268 C0.0548857143,19.9706341 8.60252857,11.4469756 19.1083,11.4469756 C29.6140714,11.4469756 38.1617143,19.9706341 38.1617143,30.4469268 C38.1617143,40.9232195 29.6140714,49.446878 19.1083,49.446878 Z M19.1083,20.9477561 C13.8554143,20.9477561 9.5824,25.2087805 9.5824,30.4469268 C9.5824,35.6850732 13.8554143,39.9460976 19.1083,39.9460976 C24.3611857,39.9460976 28.6342,35.6850732 28.6342,30.4469268 C28.6342,25.2087805 24.3611857,20.9477561 19.1083,20.9477561 Z" id="Shape" fill="#310CA3"></path>
                    <ellipse id="Oval" fill="#FFAB82" cx="36.2552429" cy="6.22170732" rx="6.1924" ry="6.17502439"></ellipse>
                    <ellipse id="Oval" fill="#FA9FB8" cx="24.1594" cy="59.6672195" rx="6.1924" ry="6.17502439"></ellipse>
                </g>
                <g id="Group" transform="translate(50.365714, 19.960976)">
                    <g transform="translate(0.000000, 0.321951)" fill="#310CA3" id="Path">
                        <polygon points="15.1371571 0.642292683 15.1371571 4.18536585 9.69862857 4.18536585 9.69862857 19.7179024 5.51762857 19.7179024 5.51762857 4.18536585 0.133985714 4.18536585 0.133985714 0.642292683"></polygon>
                        <polygon points="17.5973286 19.7179024 17.5973286 5.73878049 21.6685571 5.73878049 21.6685571 19.7179024"></polygon>
                        <path d="M33.2559,5.73878049 L37.7646,5.73878049 L37.7646,6.28287805 L33.1186857,12.1150244 L34.9492857,15.0302927 C35.5772429,15.9832683 36.0696,16.2842927 36.8622143,16.2842927 C37.1624714,16.2842927 37.8727571,16.1474634 38.3651143,15.7933171 L39.8954571,18.6554634 C38.6379286,19.7726341 37.3271286,20.0173171 36.2342571,20.0173171 C34.6490286,20.0173171 33.2010143,19.4989756 32.0807,17.892439 L29.2653857,13.3690244 L29.2653857,19.7179024 L25.1941571,19.7179024 L25.1941571,0.016097561 L29.2653857,0.016097561 L29.2653857,11.4067317 L33.2559,5.73878049 Z"></path>
                        <path d="M54.7904714,19.7179024 L50.7192429,19.7179024 L50.7192429,17.8103415 C49.5440429,19.4458537 48.0685857,20.0173171 46.3735857,20.0173171 C42.4379571,20.0173171 41.3725286,16.883122 41.3725286,13.3400488 L41.3725286,5.73717073 L45.4437571,5.73717073 L45.4437571,13.2579512 C45.4437571,15.192878 46.1540429,16.6641951 48.0395286,16.6641951 C49.9250143,16.6641951 50.7176286,15.1655122 50.7176286,13.2305854 L50.7176286,5.73717073 L54.7888571,5.73717073 L54.7888571,19.7179024 L54.7904714,19.7179024 Z"></path>
                        <polygon points="58.3709571 19.7179024 58.3709571 5.73878049 62.4421857 5.73878049 62.4421857 19.7179024"></polygon>
                    </g>
                    <ellipse id="Oval" fill="#FFAB82" cx="19.5360857" cy="2.17478049" rx="2.05014286" ry="2.04439024"></ellipse>
                    <ellipse id="Oval" fill="#FA9FB8" cx="60.5292571" cy="2.17478049" rx="2.05014286" ry="2.04439024"></ellipse>
                </g>
            </g>
        </g>
    </g>
</svg>