<svg xmlns="http://www.w3.org/2000/svg" viewBox="0 0 376.2 130.74"><defs><style>.cls-1{fill:#f39200;}.cls-2{fill:#1d1d1b;}.cls-3{fill:#ef7d00;}.cls-4{fill:#fff;}</style></defs><title>Ativo 2</title><g id="Camada_2" data-name="Camada 2"><g id="Camada_1-2" data-name="Camada 1"><rect class="cls-1" width="130.74" height="130.74" rx="14.42"/><path class="cls-2" d="M187.43,34.77H152.31a.83.83,0,0,0-.84.69v9.1a.77.77,0,0,0,.84.69h11.78v50a.78.78,0,0,0,.85.69h9.86a.86.86,0,0,0,.92-.69v-50h11.71c.53,0,.84-.3.84-.69v-9.1A.78.78,0,0,0,187.43,34.77Z"/><path class="cls-2" d="M223.57,34.77H199.48a.78.78,0,0,0-.85.69v9.1c0,.39.31.69.85.69h6.12V85.49h-6.13a.79.79,0,0,0-.84.69v9.1a.84.84,0,0,0,.84.69h24.1a.77.77,0,0,0,.84-.69v-9.1c0-.38-.3-.69-.84-.69h-6.12V45.25h6.12a.77.77,0,0,0,.84-.69v-9.1A.83.83,0,0,0,223.57,34.77Z"/><path class="cls-2" d="M259,65.91l24.33-30c.53-.54.15-1.15-.69-1.15H270.2a1.81,1.81,0,0,0-.69.23l-23,28.31V35.46a.75.75,0,0,0-.76-.69h-10.1a.83.83,0,0,0-.84.69V92.22s14.92-16.9,16.45-18.51l17.82,22a1.81,1.81,0,0,0,.69.23H282.9c.76,0,1.15-.53.69-1.15Z"/><path class="cls-2" d="M339.28,34.77h-9.94a.77.77,0,0,0-.84.69V75.55c0,6.19-5.66,9.18-11.4,9.18s-10.71-3.22-11.4-9.26V45.86H294.15V75.55c0,12.62,10.33,20.42,23,20.42,13,0,22.95-7.5,22.95-20.42V35.46A.82.82,0,0,0,339.28,34.77Z"/><path class="cls-2" d="M369.23,45.25h6.12a.78.78,0,0,0,.85-.69v-9.1a.85.85,0,0,0-.85-.69h-43a.78.78,0,0,0-.84.69v9.1c0,.39.31.69.84.69h25V85.49h-6.12a.79.79,0,0,0-.85.69v9.1a.85.85,0,0,0,.85.69h24.09a.78.78,0,0,0,.85-.69v-9.1c0-.38-.31-.69-.85-.69h-6.12V45.25Z"/><path class="cls-3" d="M112,4.91h-.5C105.93,54.73,77,98.18,34.8,125.83H112a14.43,14.43,0,0,0,14.42-14.42V19.33A14.43,14.43,0,0,0,112,4.91Z"/><path class="cls-4" d="M26.21,59.52a.74.74,0,0,0,.8.65h9.4a.83.83,0,0,0,.88-.65V24.25H51.36c.71,0,1.12-.29,1.12-.65V14.92c0-.29-.41-.65-1.12-.65h-36c-.62,0-1.13.36-1.13.65V23.6c0,.36.51.65,1.13.65h10.9Z"/><path class="cls-4" d="M57.68,24.25V62.59h0V97c0,5.9-5.39,8.74-10.86,8.74S36.64,102.7,36,96.94V70.71H25V97c0,12,9.84,19.45,21.86,19.45,12.39,0,21.87-7.14,21.87-19.45V14.27h-11Z"/><path class="cls-4" d="M116.41,59.34,98,37.63l18.26-22.5c.4-.4.11-.86-.52-.86h-9.36a1.28,1.28,0,0,0-.51.17L88.57,35.68V14.78a.56.56,0,0,0-.58-.51H80.41a.63.63,0,0,0-.63.51v42.6S91,44.7,92.13,43.49L105.5,60a1.52,1.52,0,0,0,.52.17h9.87C116.47,60.2,116.76,59.8,116.41,59.34Z"/><path class="cls-4" d="M103.54,106.49H97.71V61.28l-5.58-6.9c-.51.53-3,3.3-5.57,6.22v45.89h-6a.74.74,0,0,0-.8.66v8.67a.8.8,0,0,0,.8.65h23a.74.74,0,0,0,.8-.65v-8.67C104.34,106.78,104.05,106.49,103.54,106.49Z"/></g></g></svg>